<svg width="20" height="17" viewBox="0 0 20 17" fill="none" xmlns="http://www.w3.org/2000/svg">
<path d="M10.3801 0.161379C10.1787 -0.053793 9.82146 -0.053793 9.62004 0.161379L0.628405 9.73747C0.338673 10.0462 0.570855 10.5336 1.00942 10.5336H3.39575V16.521C3.39575 16.7858 3.62297 17 3.90377 17H7.96796C8.24877 17 8.47599 16.7858 8.47599 16.521V13.1681H11.5241V16.521C11.5241 16.7858 11.7514 17 12.0322 17H16.0963C16.3772 17 16.6044 16.7858 16.6044 16.521V10.5336H18.9907C19.213 10.5336 19.3816 10.4082 19.457 10.2445C19.5305 10.0855 19.5146 9.88997 19.3717 9.73747L10.3801 0.161379Z" fill="#333333"/>
</svg>
