<svg width="16" height="15" viewBox="0 0 16 15" fill="none" xmlns="http://www.w3.org/2000/svg">
<path fill-rule="evenodd" clip-rule="evenodd" d="M5.14027 0.570904C6.05021 0.193993 7.02548 0 8.0104 0C9.99952 0 11.9072 0.790177 13.3137 2.1967C14.7202 3.60322 15.5104 5.51088 15.5104 7.5C15.5104 9.48913 14.7202 11.3968 13.3137 12.8033C11.9072 14.2098 9.99952 15 8.0104 15H1.2604C1.1119 15.0063 0.964889 14.9682 0.838032 14.8908C0.711175 14.8133 0.610191 14.6999 0.547898 14.565C0.490463 14.4284 0.474771 14.2779 0.502801 14.1324C0.530832 13.9869 0.601329 13.853 0.705397 13.7475L2.2054 12.2475C1.10349 10.9114 0.503841 9.23185 0.510397 7.5C0.510397 5.51088 1.30057 3.60322 2.7071 2.1967C3.40354 1.50026 4.23033 0.947814 5.14027 0.570904ZM4.23926 7H11.7393C11.9382 7 12.1289 7.07902 12.2696 7.21967C12.4102 7.36032 12.4893 7.55109 12.4893 7.75C12.4893 7.94891 12.4102 8.13968 12.2696 8.28033C12.1289 8.42098 11.9382 8.5 11.7393 8.5H4.23926C4.04035 8.5 3.84958 8.42098 3.70893 8.28033C3.56828 8.13968 3.48926 7.94891 3.48926 7.75C3.48926 7.55109 3.56828 7.36032 3.70893 7.21967C3.84958 7.07902 4.04035 7 4.23926 7ZM5.73926 10H10.2393C10.4382 10 10.6289 10.079 10.7696 10.2197C10.9102 10.3603 10.9893 10.5511 10.9893 10.75C10.9893 10.9489 10.9102 11.1397 10.7696 11.2803C10.6289 11.421 10.4382 11.5 10.2393 11.5H5.73926C5.54035 11.5 5.34958 11.421 5.20893 11.2803C5.06828 11.1397 4.98926 10.9489 4.98926 10.75C4.98926 10.5511 5.06828 10.3603 5.20893 10.2197C5.34958 10.079 5.54035 10 5.73926 10ZM10.2393 5.5H5.73926C5.54035 5.5 5.34958 5.42098 5.20893 5.28033C5.06828 5.13968 4.98926 4.94891 4.98926 4.75C4.98926 4.55109 5.06828 4.36032 5.20893 4.21967C5.34958 4.07902 5.54035 4 5.73926 4H10.2393C10.4382 4 10.6289 4.07902 10.7696 4.21967C10.9102 4.36032 10.9893 4.55109 10.9893 4.75C10.9893 4.94891 10.9102 5.13968 10.7696 5.28033C10.6289 5.42098 10.4382 5.5 10.2393 5.5Z" fill="#333333"/>
</svg>
