<svg width="38" height="38" viewBox="0 0 38 38" fill="none" xmlns="http://www.w3.org/2000/svg">
<g filter="url(#filter0_d_202_2203)">
<rect x="4" y="4" width="30" height="30" rx="15" fill="white" shape-rendering="crispEdges"/>
<path d="M23.6771 22.3091C23.1119 22.3117 22.5681 22.5323 22.1523 22.9276L16.6056 19.5942C16.6485 19.41 16.672 19.2214 16.6757 19.032C16.672 18.8425 16.6485 18.654 16.6056 18.4697L22.0901 15.1684C22.4828 15.5437 22.9886 15.7678 23.5226 15.8032C24.0565 15.8386 24.5859 15.683 25.0218 15.3626C25.4577 15.0423 25.7735 14.5767 25.9159 14.0442C26.0584 13.5117 26.0189 12.9448 25.8041 12.4389C25.5893 11.9329 25.2123 11.5188 24.7365 11.2662C24.2607 11.0135 23.7151 10.9378 23.1916 11.0517C22.668 11.1656 22.1985 11.4621 21.8618 11.8915C21.5252 12.3209 21.3421 12.8569 21.3433 13.4094C21.3469 13.5988 21.3704 13.7874 21.4133 13.9716L15.9288 17.2729C15.5967 16.9518 15.1808 16.7379 14.7325 16.6577C14.2841 16.5774 13.8228 16.6343 13.4053 16.8212C12.9878 17.0081 12.6324 17.317 12.3827 17.7097C12.133 18.1025 12 18.5621 12 19.032C12 19.5018 12.133 19.9614 12.3827 20.3542C12.6324 20.747 12.9878 21.0558 13.4053 21.2427C13.8228 21.4297 14.2841 21.4865 14.7325 21.4062C15.1808 21.326 15.5967 21.1121 15.9288 20.791L21.4677 24.1325C21.4274 24.3034 21.4066 24.4786 21.4055 24.6546C21.4055 25.1185 21.5387 25.5719 21.7883 25.9576C22.0379 26.3433 22.3927 26.6439 22.8078 26.8215C23.2229 26.999 23.6796 27.0454 24.1202 26.9549C24.5609 26.8644 24.9656 26.6411 25.2833 26.313C25.601 25.985 25.8174 25.5671 25.905 25.1121C25.9927 24.6572 25.9477 24.1856 25.7757 23.757C25.6038 23.3284 25.3127 22.9621 24.9391 22.7044C24.5655 22.4467 24.1264 22.3091 23.6771 22.3091Z" fill="black" fill-opacity="0.75"/>
</g>
<defs>
<filter id="filter0_d_202_2203" x="0" y="0" width="38" height="38" filterUnits="userSpaceOnUse" color-interpolation-filters="sRGB">
<feFlood flood-opacity="0" result="BackgroundImageFix"/>
<feColorMatrix in="SourceAlpha" type="matrix" values="0 0 0 0 0 0 0 0 0 0 0 0 0 0 0 0 0 0 127 0" result="hardAlpha"/>
<feOffset/>
<feGaussianBlur stdDeviation="2"/>
<feComposite in2="hardAlpha" operator="out"/>
<feColorMatrix type="matrix" values="0 0 0 0 0 0 0 0 0 0 0 0 0 0 0 0 0 0 0.84 0"/>
<feBlend mode="normal" in2="BackgroundImageFix" result="effect1_dropShadow_202_2203"/>
<feBlend mode="normal" in="SourceGraphic" in2="effect1_dropShadow_202_2203" result="shape"/>
</filter>
</defs>
</svg>
