<svg width="16" height="18" viewBox="0 0 16 18" fill="none" xmlns="http://www.w3.org/2000/svg">
<path d="M4.02718 17.6606L15.7936 10.8266C16.1206 10.6367 16.0384 10.0629 15.6926 9.90757C14.8918 9.54795 13.9355 8.88771 13.3045 7.78824L12.4606 6.27323C10.7485 3.29015 6.96813 2.26144 4.01683 3.97555C1.10838 5.66478 0.118368 9.41733 1.80557 12.3571L2.69451 13.9505C3.32122 15.0425 3.39316 16.2098 3.28334 17.0979C3.23601 17.4807 3.69614 17.8528 4.02718 17.6606Z" fill="#4F4F4F"/>
<path d="M4.72479 1.31763C5.2589 2.24826 4.94194 3.43825 4.01683 3.97555C3.09173 4.51285 1.90881 4.19399 1.3747 3.26337C0.840594 2.33274 1.15756 1.14275 2.08266 0.605447C3.00776 0.0681484 4.19068 0.387005 4.72479 1.31763Z" fill="#4F4F4F"/>
<path d="M10.2984 14.7303C10.8326 15.6609 10.5156 16.8509 9.59048 17.3882C8.66538 17.9255 7.48246 17.6066 6.94835 16.676C6.41424 15.7454 6.73121 14.5554 7.65631 14.0181C8.58141 13.4808 9.76433 13.7996 10.2984 14.7303Z" fill="#4F4F4F"/>
</svg>
