<svg width="13" height="13" viewBox="0 0 13 13" fill="none" xmlns="http://www.w3.org/2000/svg">
<path d="M7.20384 6.61884C7.49286 6.36866 7.72468 6.05924 7.88356 5.71156C8.04245 5.36389 8.12468 4.9861 8.12467 4.60384C8.12467 3.88555 7.83933 3.19667 7.33142 2.68876C6.82351 2.18085 6.13464 1.89551 5.41634 1.89551C4.69805 1.89551 4.00917 2.18085 3.50126 2.68876C2.99335 3.19667 2.70801 3.88555 2.70801 4.60384C2.708 4.9861 2.79023 5.36389 2.94912 5.71156C3.108 6.05924 3.33982 6.36866 3.62884 6.61884C2.87058 6.9622 2.22726 7.51667 1.77579 8.21597C1.32432 8.91527 1.08381 9.7298 1.08301 10.5622C1.08301 10.7058 1.14008 10.8436 1.24166 10.9452C1.34324 11.0468 1.48102 11.1038 1.62467 11.1038C1.76833 11.1038 1.90611 11.0468 2.00769 10.9452C2.10927 10.8436 2.16634 10.7058 2.16634 10.5622C2.16634 9.70022 2.50875 8.87357 3.11824 8.26408C3.72774 7.65458 4.55439 7.31217 5.41634 7.31217C6.2783 7.31217 7.10495 7.65458 7.71444 8.26408C8.32393 8.87357 8.66634 9.70022 8.66634 10.5622C8.66634 10.7058 8.72341 10.8436 8.82499 10.9452C8.92657 11.0468 9.06435 11.1038 9.20801 11.1038C9.35167 11.1038 9.48944 11.0468 9.59102 10.9452C9.69261 10.8436 9.74967 10.7058 9.74967 10.5622C9.74888 9.7298 9.50836 8.91527 9.05689 8.21597C8.60542 7.51667 7.9621 6.9622 7.20384 6.61884ZM5.41634 6.22884C5.09495 6.22884 4.78077 6.13354 4.51354 5.95498C4.24631 5.77642 4.03803 5.52263 3.91504 5.2257C3.79204 4.92877 3.75986 4.60204 3.82257 4.28682C3.88527 3.9716 4.04003 3.68205 4.26729 3.45479C4.49455 3.22753 4.7841 3.07277 5.09932 3.01007C5.41454 2.94736 5.74127 2.97954 6.0382 3.10254C6.33513 3.22553 6.58892 3.43381 6.76748 3.70104C6.94604 3.96827 7.04134 4.28245 7.04134 4.60384C7.04134 5.03482 6.87014 5.44814 6.56539 5.75289C6.26064 6.05764 5.84732 6.22884 5.41634 6.22884ZM11.7593 4.94509C11.7089 4.89432 11.649 4.85402 11.583 4.82653C11.517 4.79903 11.4462 4.78487 11.3747 4.78487C11.3032 4.78487 11.2324 4.79903 11.1664 4.82653C11.1004 4.85402 11.0404 4.89432 10.9901 4.94509L9.90676 6.02842L9.57092 5.68717C9.52057 5.6364 9.46066 5.59611 9.39465 5.56861C9.32865 5.54111 9.25785 5.52695 9.18634 5.52695C9.11483 5.52695 9.04404 5.54111 8.97803 5.56861C8.91202 5.59611 8.85211 5.6364 8.80176 5.68717C8.70087 5.78866 8.64425 5.92595 8.64425 6.06905C8.64425 6.21215 8.70087 6.34944 8.80176 6.45092L9.52759 7.17676C9.62908 7.27764 9.76637 7.33427 9.90947 7.33427C10.0526 7.33427 10.1899 7.27764 10.2913 7.17676L11.7376 5.73051C11.7923 5.68139 11.8364 5.62166 11.8673 5.55494C11.8981 5.48823 11.9151 5.41593 11.9171 5.34245C11.9191 5.26897 11.9062 5.19585 11.8791 5.12754C11.8519 5.05922 11.8112 4.99715 11.7593 4.94509Z" fill="#414853"/>
</svg>
