<svg width="30" height="30" viewBox="0 0 30 30" fill="none" xmlns="http://www.w3.org/2000/svg">
<g clip-path="url(#clip0_993_3296)">
<path d="M9.90701 5.86788C10.1328 5.86788 10.3084 6.0435 10.3084 6.26929V9.83181C10.3084 10.0576 10.1328 10.2332 9.90701 10.2332H6.34449C6.11869 10.2332 5.94308 10.0576 5.94308 9.83181V6.26929C5.94308 6.0435 6.11869 5.86788 6.34449 5.86788H9.90701ZM9.90701 5.11523H6.34449C5.71728 5.11523 5.19043 5.64209 5.19043 6.26929V9.83181C5.19043 10.459 5.71728 10.9859 6.34449 10.9859H9.90701C10.5342 10.9859 11.0611 10.459 11.0611 9.83181V6.26929C11.0611 5.64209 10.5342 5.11523 9.90701 5.11523Z" fill="#5E605E"/>
<path d="M16.781 5.86788C17.0068 5.86788 17.1824 6.0435 17.1824 6.26929V9.83181C17.1824 10.0576 17.0068 10.2332 16.781 10.2332H13.2185C12.9927 10.2332 12.8171 10.0576 12.8171 9.83181V6.26929C12.8171 6.0435 12.9927 5.86788 13.2185 5.86788H16.781ZM16.781 5.11523H13.2185C12.5913 5.11523 12.0645 5.64209 12.0645 6.26929V9.83181C12.0645 10.459 12.5913 10.9859 13.2185 10.9859H16.781C17.4082 10.9859 17.9351 10.459 17.9351 9.83181V6.26929C17.9351 5.64209 17.4082 5.11523 16.781 5.11523Z" fill="#5E605E"/>
<path d="M23.656 5.86788C23.8818 5.86788 24.0574 6.0435 24.0574 6.26929V9.83181C24.0574 10.0576 23.8818 10.2332 23.656 10.2332H20.0935C19.8677 10.2332 19.6921 10.0576 19.6921 9.83181V6.26929C19.6921 6.0435 19.8677 5.86788 20.0935 5.86788H23.656ZM23.656 5.11523H20.0935C19.4663 5.11523 18.9395 5.64209 18.9395 6.26929V9.83181C18.9395 10.459 19.4663 10.9859 20.0935 10.9859H23.656C24.2832 10.9859 24.8101 10.459 24.8101 9.83181V6.26929C24.8101 5.64209 24.2832 5.11523 23.656 5.11523Z" fill="#5E605E"/>
<path d="M9.90701 12.8171C10.1328 12.8171 10.3084 12.9927 10.3084 13.2185V16.781C10.3084 17.0068 10.1328 17.1824 9.90701 17.1824H6.34449C6.11869 17.1824 5.94308 17.0068 5.94308 16.781V13.2185C5.94308 12.9927 6.11869 12.8171 6.34449 12.8171H9.90701ZM9.90701 12.0645H6.34449C5.71728 12.0645 5.19043 12.5913 5.19043 13.2185V16.781C5.19043 17.4082 5.71728 17.9351 6.34449 17.9351H9.90701C10.5342 17.9351 11.0611 17.4082 11.0611 16.781V13.2185C11.0611 12.5913 10.5342 12.0645 9.90701 12.0645Z" fill="#5E605E"/>
<path d="M16.781 12.8171C17.0068 12.8171 17.1824 12.9927 17.1824 13.2185V16.781C17.1824 17.0068 17.0068 17.1824 16.781 17.1824H13.2185C12.9927 17.1824 12.8171 17.0068 12.8171 16.781V13.2185C12.8171 12.9927 12.9927 12.8171 13.2185 12.8171H16.781ZM16.781 12.0645H13.2185C12.5913 12.0645 12.0645 12.5913 12.0645 13.2185V16.781C12.0645 17.4082 12.5913 17.9351 13.2185 17.9351H16.781C17.4082 17.9351 17.9351 17.4082 17.9351 16.781V13.2185C17.9351 12.5913 17.4082 12.0645 16.781 12.0645Z" fill="#5E605E"/>
<path d="M23.656 12.8171C23.8818 12.8171 24.0574 12.9927 24.0574 13.2185V16.781C24.0574 17.0068 23.8818 17.1824 23.656 17.1824H20.0935C19.8677 17.1824 19.6921 17.0068 19.6921 16.781V13.2185C19.6921 12.9927 19.8677 12.8171 20.0935 12.8171H23.656ZM23.656 12.0645H20.0935C19.4663 12.0645 18.9395 12.5913 18.9395 13.2185V16.781C18.9395 17.4082 19.4663 17.9351 20.0935 17.9351H23.656C24.2832 17.9351 24.8101 17.4082 24.8101 16.781V13.2185C24.8101 12.5913 24.2832 12.0645 23.656 12.0645Z" fill="#5E605E"/>
<path d="M9.90701 19.7673C10.1328 19.7673 10.3084 19.9429 10.3084 20.1687V23.7312C10.3084 23.957 10.1328 24.1326 9.90701 24.1326H6.34449C6.11869 24.1326 5.94308 23.957 5.94308 23.7312V20.1687C5.94308 19.9429 6.11869 19.7673 6.34449 19.7673H9.90701ZM9.90701 19.0146H6.34449C5.71728 19.0146 5.19043 19.5415 5.19043 20.1687V23.7312C5.19043 24.3584 5.71728 24.8853 6.34449 24.8853H9.90701C10.5342 24.8853 11.0611 24.3584 11.0611 23.7312V20.1687C11.0611 19.5415 10.5342 19.0146 9.90701 19.0146Z" fill="#5E605E"/>
<path d="M16.781 19.7673C17.0068 19.7673 17.1824 19.9429 17.1824 20.1687V23.7312C17.1824 23.957 17.0068 24.1326 16.781 24.1326H13.2185C12.9927 24.1326 12.8171 23.957 12.8171 23.7312V20.1687C12.8171 19.9429 12.9927 19.7673 13.2185 19.7673H16.781ZM16.781 19.0146H13.2185C12.5913 19.0146 12.0645 19.5415 12.0645 20.1687V23.7312C12.0645 24.3584 12.5913 24.8853 13.2185 24.8853H16.781C17.4082 24.8853 17.9351 24.3584 17.9351 23.7312V20.1687C17.9351 19.5415 17.4082 19.0146 16.781 19.0146Z" fill="#5E605E"/>
<path d="M23.656 19.7673C23.8818 19.7673 24.0574 19.9429 24.0574 20.1687V23.7312C24.0574 23.957 23.8818 24.1326 23.656 24.1326H20.0935C19.8677 24.1326 19.6921 23.957 19.6921 23.7312V20.1687C19.6921 19.9429 19.8677 19.7673 20.0935 19.7673H23.656ZM23.656 19.0146H20.0935C19.4663 19.0146 18.9395 19.5415 18.9395 20.1687V23.7312C18.9395 24.3584 19.4663 24.8853 20.0935 24.8853H23.656C24.2832 24.8853 24.8101 24.3584 24.8101 23.7312V20.1687C24.8101 19.5415 24.2832 19.0146 23.656 19.0146Z" fill="#5E605E"/>
</g>
<defs>
<clipPath id="clip0_993_3296">
<rect width="19.6189" height="19.7696" fill="white" transform="translate(5.19043 5.11523)"/>
</clipPath>
</defs>
</svg>
