<svg width="18" height="20" viewBox="0 0 18 20" fill="none" xmlns="http://www.w3.org/2000/svg">
<path d="M12.681 3.68875C14.0922 3.76825 15.4947 3.87425 16.8971 4.01558C17.263 4.05091 17.5243 4.37774 17.4982 4.73989C17.4634 5.08439 17.1759 5.34055 16.8449 5.34055H16.7752C12.1584 4.87239 7.55901 4.69573 2.99445 5.15505L1.21741 5.33171C0.851552 5.36705 0.537958 5.10205 0.503115 4.73989C0.468271 4.37774 0.729599 4.05091 1.09546 4.01558L2.87249 3.83892C3.68261 3.75942 4.49273 3.70642 5.30285 3.65342L5.48578 2.52278C5.62515 1.66597 5.81679 0.5 7.84647 0.5H10.1287C12.1628 0.5 12.3579 1.71379 12.4886 2.52643L12.4894 2.53162L12.681 3.67992V3.68875Z" fill="#4F4F4F"/>
<path fill-rule="evenodd" clip-rule="evenodd" d="M14.5017 6.2415C14.7978 6.2415 15.0853 6.36516 15.2944 6.58599C15.4947 6.80682 15.608 7.10714 15.5905 7.42513L15.0505 16.4791C14.9547 17.8305 14.8327 19.5 11.7926 19.5H6.20017C3.16005 19.5 3.0381 17.8217 2.94228 16.4791L2.4022 7.4163C2.38478 7.10714 2.49802 6.80682 2.69837 6.58599C2.89873 6.36516 3.1949 6.2415 3.49107 6.2415H14.5017ZM7.54162 15.0746H10.4424C10.7995 15.0746 11.0957 14.7743 11.0957 14.4121C11.0957 14.05 10.7995 13.7496 10.4424 13.7496H7.54162C7.18451 13.7496 6.88834 14.05 6.88834 14.4121C6.88834 14.7743 7.18451 15.0746 7.54162 15.0746ZM6.81865 11.5414H11.1741C11.5312 11.5414 11.8274 11.241 11.8274 10.8789C11.8274 10.5167 11.5312 10.2164 11.1741 10.2164H6.81865C6.4615 10.2164 6.16533 10.5167 6.16533 10.8789C6.16533 11.241 6.4615 11.5414 6.81865 11.5414Z" fill="#4F4F4F"/>
</svg>
