<svg width="22" height="24" viewBox="0 0 22 24" fill="none" xmlns="http://www.w3.org/2000/svg">
<path d="M11 8.08695C10.2318 8.08695 9.48078 8.31645 8.84202 8.74642C8.20325 9.17639 7.7054 9.78753 7.41141 10.5025C7.11741 11.2176 7.04049 12.0043 7.19037 12.7634C7.34024 13.5225 7.71018 14.2197 8.25341 14.7669C8.79663 15.3142 9.48874 15.6869 10.2422 15.8379C10.9957 15.9888 11.7767 15.9113 12.4864 15.6152C13.1962 15.319 13.8028 14.8175 14.2296 14.174C14.6565 13.5305 14.8843 12.7739 14.8843 12C14.8812 10.9631 14.471 9.96965 13.7432 9.23648C13.0154 8.50331 12.0292 8.09005 11 8.08695ZM19.3861 12C19.3841 12.3656 19.3575 12.7307 19.3065 13.0927L21.6706 14.9573C21.7735 15.0429 21.8429 15.1627 21.8663 15.2951C21.8897 15.4275 21.8656 15.564 21.7983 15.6802L19.5619 19.5698C19.4939 19.6849 19.3878 19.7722 19.2622 19.8163C19.1366 19.8604 18.9997 19.8585 18.8753 19.8109L16.0957 18.6859C15.5169 19.1349 14.8834 19.5076 14.2108 19.7948L13.7952 22.7677C13.772 22.9009 13.7035 23.0218 13.6016 23.1097C13.4996 23.1977 13.3706 23.2473 13.2364 23.25H8.76363C8.63188 23.2474 8.50489 23.1999 8.40339 23.1153C8.3019 23.0306 8.23188 22.9138 8.20478 22.7839L7.78917 19.8109C7.1147 19.527 6.48083 19.1538 5.90433 18.7011L3.12465 19.8261C3.0004 19.8737 2.86345 19.8757 2.73788 19.8317C2.61231 19.7877 2.50617 19.7005 2.43811 19.5854L0.201743 15.6964C0.134427 15.5802 0.110311 15.4437 0.133704 15.3112C0.157097 15.1788 0.226474 15.0591 0.329438 14.9734L2.6935 13.1089C2.64307 12.7414 2.61648 12.371 2.61387 12C2.61589 11.6344 2.64249 11.2693 2.6935 10.9073L0.329438 9.04272C0.226474 8.95707 0.157097 8.83733 0.133704 8.70489C0.110311 8.57245 0.134427 8.43595 0.201743 8.31978L2.43811 4.43022C2.50609 4.31507 2.6122 4.22777 2.73778 4.18366C2.86335 4.13956 3.00034 4.14147 3.12465 4.18908L5.90433 5.31407C6.48314 4.86506 7.11655 4.49242 7.78917 4.20522L8.20478 1.23228C8.22805 1.09912 8.29649 0.978221 8.39842 0.890255C8.50035 0.80229 8.62944 0.752714 8.76363 0.75H13.2364C13.3681 0.752583 13.4951 0.800083 13.5966 0.884744C13.6981 0.969405 13.7681 1.08623 13.7952 1.21614L14.2108 4.18908C14.8861 4.47276 15.5208 4.846 16.0981 5.29891L18.8753 4.17391C18.9996 4.12627 19.1366 4.12428 19.2621 4.16829C19.3877 4.21231 19.4938 4.29951 19.5619 4.41456L21.7983 8.30413C21.8656 8.4203 21.8897 8.5568 21.8663 8.68924C21.8429 8.82167 21.7735 8.94142 21.6706 9.02706L19.3065 10.8916C19.3569 11.259 19.3835 11.6292 19.3861 12Z" fill="#4F4F4F"/>
</svg>
