<svg width="13" height="12" viewBox="0 0 13 12" fill="none" xmlns="http://www.w3.org/2000/svg">
<path d="M5.90084 7.24857L1.34096 11.8072C1.28261 11.8676 1.21281 11.9158 1.13564 11.9489C1.05847 11.9821 0.97547 11.9995 0.891483 12.0003C0.807497 12.001 0.724206 11.985 0.646471 11.9532C0.568736 11.9214 0.498113 11.8744 0.438723 11.815C0.379334 11.7556 0.332367 11.685 0.300563 11.6073C0.268759 11.5295 0.252755 11.4463 0.253485 11.3623C0.254214 11.2783 0.271664 11.1953 0.304814 11.1181C0.337964 11.0409 0.386151 10.9711 0.446564 10.9128L5.07919 6.28017C5.04312 6.07934 5.05617 5.87277 5.11723 5.67807C5.17828 5.48338 5.28552 5.30634 5.4298 5.16206C5.57408 5.01778 5.75112 4.91054 5.94581 4.84948C6.14051 4.78843 6.34708 4.77538 6.54791 4.81145L11.1824 0.177558C11.3017 0.0623378 11.4615 -0.00141725 11.6274 2.39112e-05C11.7932 0.00146507 11.9518 0.0679872 12.0691 0.185263C12.1864 0.302538 12.2529 0.461184 12.2544 0.62703C12.2558 0.792877 12.192 0.952654 12.0768 1.07195L7.51758 5.63247C7.59809 5.85801 7.61294 6.10177 7.56038 6.33541C7.50783 6.56906 7.39003 6.78298 7.2207 6.95232C7.05136 7.12166 6.83743 7.23946 6.60379 7.29201C6.37014 7.34456 6.12638 7.32909 5.90084 7.24857ZM10.6701 3.37308C11.8599 4.05874 12.6505 5.00626 12.6505 6.05626C12.6505 8.15245 9.51446 9.84699 6.32526 9.85142C5.67627 9.85137 5.02906 9.78353 4.39416 9.64901L5.57129 8.47251C6.01203 8.61024 6.48206 8.62472 6.93045 8.5144C7.37884 8.40407 7.78848 8.17314 8.115 7.84662C8.44151 7.52011 8.67244 7.11046 8.78277 6.66208C8.8931 6.21369 8.87861 5.74366 8.74088 5.30292L10.6701 3.37308ZM8.03878 2.42682L6.87872 3.58687C6.46252 3.49344 6.02946 3.50676 5.61978 3.62558C5.2101 3.7444 4.83712 3.96487 4.53549 4.26649C4.23387 4.56811 4.0134 4.9411 3.89458 5.35077C3.77576 5.76045 3.76245 6.19352 3.85588 6.60972L1.81472 8.64962C0.717285 7.97155 0 7.05881 0 6.05626C0 3.96007 3.15251 2.25035 6.32526 2.2611C6.90339 2.263 7.48089 2.32056 8.03878 2.42682Z" fill="#5E605E"/>
</svg>
