<svg width="20" height="16" viewBox="0 0 20 16" fill="none" xmlns="http://www.w3.org/2000/svg">
<path d="M0.51 2.00042V1.99999C0.509995 1.60347 0.667 1.22307 0.946685 0.941976C1.2261 0.661161 1.60523 0.502287 2.00134 0.5H17.9992C18.3968 0.501371 18.7777 0.659924 19.0589 0.941089C19.3401 1.22227 19.4987 1.60325 19.5 2.00089C19.5 2.00109 19.5 2.00129 19.5 2.00149V13.9985C19.5 13.9987 19.5 13.9989 19.5 13.9991C19.4987 14.3967 19.3401 14.7777 19.0589 15.0589C18.7777 15.3401 18.3967 15.4987 17.9991 15.5H2.00089C1.60325 15.4987 1.22227 15.3401 0.941088 15.0589C0.65997 14.7778 0.501422 14.3969 0.500001 13.9994L0.51 2.00042ZM18.265 4.424L18.5 4.27712V4V2V1.09788L17.735 1.576L10 6.41038L2.265 1.576L1.5 1.09788V2V4V4.27712L1.735 4.424L9.735 9.424L10 9.58962L10.265 9.424L18.265 4.424Z" stroke="white"/>
</svg>
