<svg width="20" height="20" viewBox="0 0 20 20" fill="none" xmlns="http://www.w3.org/2000/svg">
<path d="M10 20C8.02219 20 6.08879 19.4135 4.4443 18.3147C2.79981 17.2159 1.51809 15.6541 0.761209 13.8268C0.00433284 11.9996 -0.193701 9.98891 0.192152 8.0491C0.578004 6.10929 1.53041 4.32746 2.92894 2.92893C4.32746 1.53041 6.10929 0.577999 8.0491 0.192146C9.98891 -0.193707 11.9996 0.00432777 13.8268 0.761204C15.6541 1.51808 17.2159 2.79981 18.3147 4.4443C19.4135 6.08879 20 8.02219 20 10C20 11.3132 19.7413 12.6136 19.2388 13.8268C18.7363 15.0401 17.9997 16.1425 17.0711 17.0711C16.1425 17.9997 15.0401 18.7362 13.8268 19.2388C12.6136 19.7413 11.3132 20 10 20ZM11 5H9V7H11V5ZM11 9H9V15H11V9Z" fill="#4F4F4F"/>
</svg>
