<svg width="18" height="20" viewBox="0 0 18 20" fill="none" xmlns="http://www.w3.org/2000/svg">
<path d="M16 0H2C1.46957 0 0.960859 0.20068 0.585786 0.557892C0.210714 0.915104 0 1.39959 0 1.90476V15.2381C0 15.7433 0.210714 16.2278 0.585786 16.585C0.960859 16.9422 1.46957 17.1429 2 17.1429H6L9 20L12 17.1429H16C16.5299 17.1413 17.0377 16.9402 17.4125 16.5833C17.7872 16.2264 17.9984 15.7428 18 15.2381V1.90476C17.9984 1.40005 17.7872 0.916443 17.4125 0.559557C17.0377 0.202671 16.5299 0.00150736 16 0ZM10 15.2381H8V13.3333H10V15.2381ZM12.07 7.85714L11.17 8.73333C10.7672 9.06413 10.4516 9.4803 10.2483 9.9484C10.0451 10.4165 9.96008 10.9235 10 11.4286H8V10.9524C8.00189 9.94225 8.42236 8.97365 9.17 8.25714L10.41 7.05714C10.598 6.88252 10.7471 6.67362 10.8485 6.4429C10.9499 6.21219 11.0014 5.96438 11 5.71429C11 5.20911 10.7893 4.72463 10.4142 4.36742C10.0391 4.0102 9.53043 3.80952 9 3.80952C8.46957 3.80952 7.96086 4.0102 7.58579 4.36742C7.21071 4.72463 7 5.20911 7 5.71429H5C5 4.70394 5.42143 3.73497 6.17157 3.02055C6.92172 2.30612 7.93913 1.90476 9 1.90476C10.0609 1.90476 11.0783 2.30612 11.8284 3.02055C12.5786 3.73497 13 4.70394 13 5.71429C13.0005 6.51774 12.666 7.28851 12.07 7.85714Z" fill="#4F4F4F"/>
</svg>
