<svg width="10" height="11" viewBox="0 0 10 11" fill="none" xmlns="http://www.w3.org/2000/svg">
<path opacity="0.6" d="M7.07222 0.5H2.92778L0 3.42778V7.57222L2.92778 10.5H7.07222L10 7.57222V3.42778L7.07222 0.5ZM5 8.44444C4.85716 8.44444 4.71752 8.40209 4.59875 8.32273C4.47999 8.24337 4.38742 8.13057 4.33275 7.9986C4.27809 7.86664 4.26379 7.72142 4.29166 7.58132C4.31952 7.44123 4.38831 7.31254 4.48931 7.21153C4.59032 7.11053 4.719 7.04174 4.8591 7.01388C4.9992 6.98601 5.14441 7.00031 5.27638 7.05498C5.40835 7.10964 5.52115 7.20221 5.60051 7.32098C5.67986 7.43975 5.72222 7.57938 5.72222 7.72222C5.72222 7.91377 5.64613 8.09747 5.51069 8.23291C5.37525 8.36835 5.19155 8.44444 5 8.44444ZM5.55556 6.05556H4.44444V2.72222H5.55556V6.05556Z" fill="#6A6A6A"/>
</svg>
