<svg width="29" height="35" viewBox="0 0 29 35" fill="none" xmlns="http://www.w3.org/2000/svg">
<path d="M5.55033 14.854H9.07463C9.01242 16.1442 9.16922 16.8264 9.77949 17.9718H2.4288V3.69022C10.4844 0.672626 17.7344 0.370814 26.5955 3.69022V11.9373H23.4739V6.10402C18.2378 3.48863 8.57116 4.09208 5.55033 6.10402V14.854Z" fill="#4AB848"/>
<path d="M2.42876 20.8881H5.4496C6.35585 24.8105 8.34501 27.0698 14.5121 30.0404C21.0464 26.7326 23.8639 24.3959 23.474 17.9714H19.2448C19.3004 17.8159 19.3548 17.6741 19.4068 17.5387C19.6802 16.8264 19.8864 16.2891 19.8489 14.8536L26.6962 14.753L26.5954 22.799C25.3871 27.2243 21.8628 30.5432 14.5121 33.661C4.54337 29.4369 2.22741 24.911 2.42876 20.8881Z" fill="#4AB848"/>
<path d="M18.3376 15.2564C18.3376 17.4227 14.5112 22.7995 14.5112 22.7995C14.5112 22.7995 10.4834 17.4227 10.4834 15.2564C10.4834 13.0901 12.2416 11.334 14.4105 11.334C16.5793 11.334 18.3376 13.0901 18.3376 15.2564Z" fill="#B6DCAE"/>
<ellipse cx="14.4105" cy="15.4578" rx="2.11458" ry="2.11207" fill="#ED1C24"/>
</svg>
