<svg width="14" height="16" viewBox="0 0 14 16" fill="none" xmlns="http://www.w3.org/2000/svg">
<path d="M11.6771 11.3091C11.1119 11.3117 10.5681 11.5323 10.1523 11.9276L4.60565 8.59422C4.64854 8.40996 4.67201 8.22144 4.67566 8.03196C4.67201 7.84249 4.64854 7.65397 4.60565 7.4697L10.0901 4.16843C10.4828 4.54367 10.9886 4.76783 11.5226 4.8032C12.0565 4.83857 12.5859 4.683 13.0218 4.36265C13.4577 4.0423 13.7735 3.57672 13.9159 3.04424C14.0584 2.51175 14.0189 1.94485 13.8041 1.43889C13.5893 0.932937 13.2123 0.518802 12.7365 0.266152C12.2607 0.0135033 11.7151 -0.0622434 11.1916 0.0516544C10.668 0.165552 10.1985 0.462145 9.86185 0.891539C9.52523 1.32093 9.3421 1.85693 9.34328 2.40936C9.34693 2.59884 9.3704 2.78735 9.41329 2.97162L3.92884 6.27289C3.59666 5.95178 3.18081 5.73795 2.73246 5.65769C2.2841 5.57744 1.82281 5.63426 1.40533 5.82118C0.987846 6.0081 0.632396 6.31696 0.382711 6.70975C0.133026 7.10254 0 7.56213 0 8.03196C0 8.5018 0.133026 8.96139 0.382711 9.35418C0.632396 9.74697 0.987846 10.0558 1.40533 10.2427C1.82281 10.4297 2.2841 10.4865 2.73246 10.4062C3.18081 10.326 3.59666 10.1121 3.92884 9.79104L9.46775 13.1325C9.42744 13.3034 9.40656 13.4786 9.40551 13.6546C9.40551 14.1185 9.53874 14.5719 9.78834 14.9576C10.0379 15.3433 10.3927 15.6439 10.8078 15.8215C11.2229 15.999 11.6796 16.0454 12.1202 15.9549C12.5609 15.8644 12.9656 15.6411 13.2833 15.313C13.601 14.985 13.8174 14.5671 13.905 14.1121C13.9927 13.6572 13.9477 13.1856 13.7757 12.757C13.6038 12.3284 13.3127 11.9621 12.9391 11.7044C12.5655 11.4467 12.1264 11.3091 11.6771 11.3091Z" fill="black" fill-opacity="0.75"/>
</svg>
