<svg width="24" height="24" viewBox="0 0 24 24" fill="none" xmlns="http://www.w3.org/2000/svg">
<path d="M8.28397 22.8257L8.03286 22.3933L8.28397 22.8257ZM7.35417 22.1224L6.85795 22.061L7.35417 22.1224ZM6.61814 18.1881L6.18146 18.4318L6.18448 18.437L6.61814 18.1881ZM5.50696 16.1964L5.94364 15.9528L5.94062 15.9475L5.50696 16.1964ZM22.992 14.2833L23.2431 14.7157L22.992 14.2833ZM22.8657 13.1345L23.0705 12.6784L23.0705 12.6784L22.8657 13.1345ZM19.8806 10.4853L19.4438 10.7286L19.447 10.7342L19.8806 10.4853ZM18.8257 8.59154L19.2626 8.3482L19.2594 8.34265L18.8257 8.59154ZM8.27104 5.71944L8.52216 6.1518L8.27104 5.71944ZM15.2437 22.7329L15.4948 23.1653L15.2437 22.7329ZM0.33105 11.4807C0.369993 11.7541 0.623183 11.9441 0.896566 11.9052C1.16995 11.8662 1.36 11.6131 1.32106 11.3397L0.33105 11.4807ZM2.20072 6.90292C2.34516 6.66756 2.27145 6.35968 2.03609 6.21525C1.80073 6.07081 1.49285 6.14452 1.34842 6.37988L2.20072 6.90292ZM11.926 0.251456C11.6499 0.256694 11.4303 0.484757 11.4355 0.76085C11.4408 1.03694 11.6688 1.25651 11.9449 1.25128L11.926 0.251456ZM16.2105 2.6699C16.4253 2.84343 16.7401 2.80998 16.9136 2.59517C17.0871 2.38037 17.0537 2.06556 16.8389 1.89203L16.2105 2.6699ZM7.85039 22.1837C7.99661 21.0012 7.90436 19.4248 7.05179 17.9393L6.18448 18.437C6.89868 19.6814 6.98628 21.0232 6.85795 22.061L7.85039 22.1837ZM7.05478 17.9445L5.94361 15.9528L5.07032 16.44L6.18149 18.4317L7.05478 17.9445ZM23.0705 12.6784C22.1369 12.259 21.0367 11.4951 20.3143 10.2364L19.447 10.7342C20.3021 12.2241 21.5926 13.1108 22.6609 13.5906L23.0705 12.6784ZM20.3174 10.242L19.2625 8.34822L18.3889 8.83486L19.4438 10.7286L20.3174 10.242ZM19.2594 8.34265C16.9832 4.37662 11.9519 3.0034 8.01993 5.28707L8.52216 6.1518C11.9684 4.15021 16.3881 5.34875 18.3921 8.84042L19.2594 8.34265ZM23.2431 14.7157C23.6748 14.465 23.7848 13.993 23.7405 13.6317C23.6962 13.271 23.4846 12.8643 23.0705 12.6784L22.6609 13.5906C22.6691 13.5943 22.6867 13.6053 22.7064 13.6355C22.7266 13.6665 22.7424 13.7085 22.7479 13.7536C22.7535 13.7991 22.7468 13.8313 22.7407 13.8467C22.7361 13.8582 22.7353 13.8542 22.7409 13.8509L23.2431 14.7157ZM5.94062 15.9475C3.96676 12.5083 5.12764 8.12334 8.52216 6.1518L8.01993 5.28707C4.14332 7.5386 2.82916 12.5351 5.07331 16.4453L5.94062 15.9475ZM8.03286 22.3933C8.03932 22.3896 8.04377 22.3922 8.03264 22.3904C8.01695 22.388 7.98551 22.3775 7.94836 22.3487C7.91166 22.3202 7.88281 22.2839 7.86601 22.2494C7.8497 22.2158 7.84914 22.1938 7.85039 22.1837L6.85795 22.061C6.80152 22.5174 7.04507 22.9133 7.33507 23.1385C7.62518 23.3638 8.09533 23.5135 8.53509 23.2581L8.03286 22.3933ZM22.7409 13.8509L8.03286 22.3933L8.53509 23.2581L23.2431 14.7157L22.7409 13.8509ZM16.2508 18.1956C17.0386 19.5683 16.5145 21.4166 14.9926 22.3005L15.4948 23.1653C17.442 22.0343 18.208 19.5969 17.1181 17.6979L16.2508 18.1956ZM14.9926 22.3005C13.472 23.1837 11.6233 22.7167 10.8367 21.3461L9.96935 21.8439C11.0605 23.7451 13.5462 24.297 15.4948 23.1653L14.9926 22.3005ZM8.72234 2.64593C9.25371 3.57179 8.93718 4.75433 8.01993 5.28707L8.52216 6.1518C9.91766 5.3413 10.3935 3.54886 9.58965 2.14816L8.72234 2.64593ZM8.01993 5.28707C7.10443 5.81879 5.93242 5.50446 5.40203 4.58032L4.53472 5.07809C5.33961 6.48052 7.1249 6.96333 8.52216 6.1518L8.01993 5.28707ZM5.40203 4.58032C4.87066 3.65445 5.18719 2.47192 6.10444 1.93917L5.60221 1.07444C4.20671 1.88495 3.73083 3.67739 4.53472 5.07809L5.40203 4.58032ZM6.10444 1.93917C7.01994 1.40746 8.19195 1.72179 8.72234 2.64593L9.58965 2.14816C8.78476 0.745726 6.99947 0.262915 5.60221 1.07444L6.10444 1.93917ZM1.32106 11.3397C1.09976 9.78617 1.3958 8.21454 2.20072 6.90292L1.34842 6.37988C0.413421 7.90345 0.0791904 9.71262 0.33105 11.4807L1.32106 11.3397ZM11.9449 1.25128C13.508 1.22162 15.0208 1.70884 16.2105 2.6699L16.8389 1.89203C15.4535 0.772851 13.7073 0.21766 11.926 0.251456L11.9449 1.25128Z" fill="#32CD30"/>
</svg>
