<svg width="14" height="13" viewBox="0 0 14 13" fill="none" xmlns="http://www.w3.org/2000/svg">
<path d="M6.20887 0.0078125C6.0887 0.0078125 6.00858 0.0714357 5.9485 0.150965L0.0600858 10.9828C0.0200286 11.0624 0 11.1896 0 11.285V12.5734C0 12.6529 0.0801144 12.7166 0.180257 12.7166H13.8197C13.9199 12.7166 14 12.6529 14 12.5734V11.285C14 11.2055 13.98 11.0624 13.9399 10.9828L8.0515 0.150965C8.01145 0.0714357 7.9113 0.0078125 7.79113 0.0078125H6.16881L6.20887 0.0078125ZM6.02861 4.77956H8.03147V7.96072H6.02861V4.77956ZM6.02861 9.5513H8.03147V11.1419H6.02861V9.5513Z" fill="#FCCA00"/>
</svg>
