<svg width="24" height="21" viewBox="0 0 24 21" fill="none" xmlns="http://www.w3.org/2000/svg">
<path d="M15.2267 0.000732422C15.5221 0.000732422 15.8055 0.118233 16.0144 0.327148C16.2233 0.536064 16.3407 0.819294 16.3407 1.11475L16.3407 5.56982C16.3407 5.86537 16.2234 6.14884 16.0145 6.35791C15.8056 6.56698 15.5222 6.68455 15.2267 6.68481C15.0803 6.68481 14.9354 6.6559 14.8001 6.59985C14.6649 6.54381 14.5421 6.4617 14.4386 6.35815C14.3352 6.2546 14.2531 6.13161 14.1972 5.99634C14.1413 5.86107 14.1126 5.7162 14.1127 5.56982V2.22876L2.22669 2.22876L2.22669 17.8228L14.1077 17.8228V14.4807C14.1076 14.3344 14.1363 14.1897 14.1922 14.0544C14.2482 13.9192 14.3302 13.7963 14.4337 13.6929C14.5371 13.5894 14.66 13.5074 14.7952 13.4514C14.9304 13.3955 15.0754 13.3668 15.2217 13.3669C15.5171 13.3669 15.8005 13.4842 16.0094 13.6931C16.2183 13.902 16.3357 14.1853 16.3357 14.4807V18.9358C16.3354 19.2312 16.218 19.5143 16.0091 19.7231C15.8003 19.932 15.5171 20.0495 15.2217 20.0498L1.11369 20.0498C0.818237 20.0498 0.534883 19.9325 0.325968 19.7236C0.117052 19.5147 -0.000310898 19.2312 -0.000310898 18.9358L-0.000310898 1.11377C-0.000310898 0.818317 0.117052 0.535088 0.325968 0.326172C0.534883 0.117256 0.818237 -0.000244141 1.11369 -0.000244141L15.2267 0.000732422ZM20.0987 5.90088L23.4407 9.24292C23.4657 9.26792 23.4897 9.2938 23.5117 9.3208C23.5337 9.3478 23.5317 9.34884 23.5417 9.36084C23.5517 9.37284 23.5657 9.39194 23.5767 9.40894C23.5877 9.42594 23.5967 9.44076 23.6057 9.45776C23.6147 9.47476 23.6237 9.48793 23.6327 9.50293C23.6417 9.51793 23.6487 9.53671 23.6577 9.55371C23.6667 9.57071 23.6737 9.58578 23.6797 9.60278C23.6857 9.61978 23.6917 9.63583 23.6977 9.65283C23.7037 9.66983 23.7107 9.68781 23.7157 9.70581C23.721 9.72254 23.7253 9.7396 23.7287 9.75684C23.7287 9.77484 23.7387 9.79277 23.7427 9.81177C23.7467 9.83077 23.7487 9.85085 23.7517 9.87085C23.7547 9.89085 23.7577 9.90392 23.7577 9.91992C23.7612 9.95615 23.7628 9.99241 23.7627 10.0288C23.7629 10.0649 23.7612 10.1008 23.7577 10.1367C23.7577 10.1547 23.7577 10.1697 23.7517 10.1877C23.7457 10.2057 23.7467 10.2258 23.7427 10.2458C23.7387 10.2659 23.7337 10.2828 23.7287 10.3018C23.7252 10.3186 23.7209 10.3354 23.7157 10.3518C23.7097 10.3698 23.7037 10.3878 23.6977 10.4058C23.6917 10.4238 23.6857 10.4388 23.6797 10.4548C23.6737 10.4708 23.6647 10.4879 23.6567 10.5049C23.6487 10.5219 23.6417 10.5379 23.6327 10.5549C23.6237 10.5719 23.6147 10.5858 23.6057 10.6008C23.5967 10.6158 23.5877 10.6329 23.5777 10.6489C23.5662 10.6659 23.5538 10.682 23.5407 10.6978L23.5127 10.7368C23.4897 10.7656 23.465 10.7931 23.4387 10.8188L20.0977 14.1609C19.8887 14.3694 19.6054 14.4866 19.3102 14.4866C19.0149 14.4866 18.7317 14.3694 18.5227 14.1609C18.3138 13.9518 18.1965 13.6683 18.1965 13.3728C18.1965 13.0773 18.3138 12.7938 18.5227 12.5847L19.9627 11.1448L7.06269 11.1448C6.76723 11.1448 6.48389 11.0275 6.27497 10.8186C6.06606 10.6097 5.94869 10.3262 5.94869 10.0308C5.94869 9.73531 6.06606 9.45208 6.27497 9.24316C6.48389 9.03425 6.76723 8.91675 7.06269 8.91675L19.9627 8.91675L18.5227 7.47681C18.3142 7.26778 18.197 6.98447 18.197 6.68921C18.197 6.39394 18.3142 6.11088 18.5227 5.90186C18.626 5.79846 18.7487 5.71634 18.8837 5.6604C19.0188 5.60446 19.1635 5.57588 19.3097 5.57593C19.6039 5.57396 19.8869 5.68852 20.0967 5.89478L20.0987 5.90088Z" fill="#4F4F4F"/>
</svg>
