<svg width="17" height="17" viewBox="0 0 17 17" fill="none" xmlns="http://www.w3.org/2000/svg">
<path d="M13.248 12.7566C12.5143 11.4816 11.1363 10.625 9.5625 10.625H7.4375C5.86367 10.625 4.48574 11.4816 3.75195 12.7566C4.9207 14.0582 6.61406 14.875 8.5 14.875C10.3859 14.875 12.0793 14.0549 13.248 12.7566ZM17 8.5C17 13.1949 13.1949 17 8.5 17C3.80508 17 0 13.1949 0 8.5C0 3.80508 3.80508 0 8.5 0C13.1949 0 17 3.80508 17 8.5ZM8.5 9.03125C9.82148 9.03125 10.8906 7.96211 10.8906 6.64062C10.8906 5.31914 9.82148 4.25 8.5 4.25C7.17852 4.25 6.10938 5.31914 6.10938 6.64062C6.10938 7.96211 7.17852 9.03125 8.5 9.03125Z" fill="#4F4F4F"/>
</svg>
