<svg width="16" height="18" viewBox="0 0 16 18" fill="none" xmlns="http://www.w3.org/2000/svg">
<path d="M13.3452 12.7228C12.6993 12.7257 12.0778 12.9738 11.6027 13.4186L5.2636 9.6685C5.31262 9.4612 5.33944 9.24912 5.34361 9.03596C5.33944 8.8228 5.31262 8.61072 5.2636 8.40342L11.5315 4.68948C11.9803 5.11163 12.5584 5.36381 13.1686 5.4036C13.7788 5.44339 14.3839 5.26837 14.8821 4.90798C15.3803 4.54759 15.7411 4.02381 15.9039 3.42477C16.0667 2.82572 16.0216 2.18795 15.7761 1.61875C15.5306 1.04955 15.0998 0.583652 14.556 0.299421C14.0122 0.0151913 13.3887 -0.0700238 12.7904 0.0581112C12.192 0.186246 11.6554 0.519913 11.2707 1.00298C10.886 1.48605 10.6767 2.08904 10.678 2.71053C10.6822 2.92369 10.709 3.13577 10.758 3.34307L4.49011 7.057C4.11047 6.69576 3.63521 6.45519 3.12281 6.3649C2.6104 6.27461 2.08321 6.33855 1.60609 6.54883C1.12897 6.75912 0.722738 7.10658 0.437384 7.54847C0.15203 7.99036 0 8.50739 0 9.03596C0 9.56453 0.15203 10.0816 0.437384 10.5235C0.722738 10.9653 1.12897 11.3128 1.60609 11.5231C2.08321 11.7334 2.6104 11.7973 3.12281 11.707C3.63521 11.6167 4.11047 11.3762 4.49011 11.0149L10.8203 14.774C10.7742 14.9663 10.7503 15.1635 10.7492 15.3614C10.7492 15.8833 10.9014 16.3934 11.1867 16.8273C11.4719 17.2612 11.8774 17.5994 12.3518 17.7991C12.8261 17.9989 13.3481 18.0511 13.8517 17.9493C14.3553 17.8475 14.8179 17.5962 15.181 17.2272C15.544 16.8582 15.7913 16.388 15.8914 15.8762C15.9916 15.3643 15.9402 14.8338 15.7437 14.3516C15.5472 13.8695 15.2145 13.4574 14.7875 13.1675C14.3606 12.8775 13.8587 12.7228 13.3452 12.7228Z" fill="#4F4F4F"/>
</svg>
