<svg width="21" height="22" viewBox="0 0 21 22" fill="none" xmlns="http://www.w3.org/2000/svg">
<path d="M7.5 10.5C8.32843 10.5 9 9.60457 9 8.5C9 7.39543 8.32843 6.5 7.5 6.5C6.67157 6.5 6 7.39543 6 8.5C6 9.60457 6.67157 10.5 7.5 10.5Z" fill="#A8A8A8"/>
<path d="M13.5 10.5C14.3284 10.5 15 9.60457 15 8.5C15 7.39543 14.3284 6.5 13.5 6.5C12.6716 6.5 12 7.39543 12 8.5C12 9.60457 12.6716 10.5 13.5 10.5Z" fill="#A8A8A8"/>
<path fill-rule="evenodd" clip-rule="evenodd" d="M4.5 12.5H17L16.773 13.1875L16.7722 13.1894L16.7706 13.1932L16.7658 13.205C16.7617 13.2147 16.7561 13.228 16.7488 13.2447C16.7342 13.2781 16.7132 13.325 16.6853 13.3834C16.6297 13.5003 16.5467 13.6637 16.4347 13.8573C16.2112 14.2436 15.8684 14.7564 15.3899 15.261C14.429 16.2742 12.902 17.2689 10.7162 17.0995C7.22567 16.8294 5.66289 15.1392 5.11951 14.1217C4.99931 13.9201 4.88942 13.7126 4.79024 13.5L4.5 12.5ZM15.2531 13.5H6.10449C6.60001 14.0206 7.90672 14.9071 10.7824 15.0658L10.7963 15.0666L10.81 15.0681C11.7911 15.1769 12.7834 15.0156 13.6795 14.6018C14.2679 14.33 14.8003 13.9561 15.2531 13.5Z" fill="#A8A8A8"/>
<path fill-rule="evenodd" clip-rule="evenodd" d="M10.5 0.5C4.70101 0.5 0 5.20101 0 11C0 16.799 4.70101 21.5 10.5 21.5C16.299 21.5 21 16.799 21 11C21 5.20101 16.299 0.5 10.5 0.5ZM1 11C1 5.75329 5.25329 1.5 10.5 1.5C15.7467 1.5 20 5.75329 20 11C20 16.2467 15.7467 20.5 10.5 20.5C5.25329 20.5 1 16.2467 1 11Z" fill="#A8A8A8"/>
</svg>
