<svg width="17" height="15" viewBox="0 0 17 15" fill="none" xmlns="http://www.w3.org/2000/svg">
<path fill-rule="evenodd" clip-rule="evenodd" d="M5.64027 0.570904C6.55021 0.193993 7.52548 0 8.5104 0C10.4995 0 12.4072 0.790177 13.8137 2.1967C15.2202 3.60322 16.0104 5.51088 16.0104 7.5C16.0104 9.48913 15.2202 11.3968 13.8137 12.8033C12.4072 14.2098 10.4995 15 8.5104 15H1.7604C1.6119 15.0063 1.46489 14.9682 1.33803 14.8908C1.21118 14.8133 1.11019 14.6999 1.0479 14.565C0.990463 14.4284 0.974771 14.2779 1.0028 14.1324C1.03083 13.9869 1.10133 13.853 1.2054 13.7475L2.7054 12.2475C1.60349 10.9114 1.00384 9.23185 1.0104 7.5C1.0104 5.51088 1.80057 3.60322 3.2071 2.1967C3.90354 1.50026 4.73033 0.947814 5.64027 0.570904ZM4.73926 7H12.2393C12.4382 7 12.6289 7.07902 12.7696 7.21967C12.9102 7.36032 12.9893 7.55109 12.9893 7.75C12.9893 7.94891 12.9102 8.13968 12.7696 8.28033C12.6289 8.42098 12.4382 8.5 12.2393 8.5H4.73926C4.54035 8.5 4.34958 8.42098 4.20893 8.28033C4.06828 8.13968 3.98926 7.94891 3.98926 7.75C3.98926 7.55109 4.06828 7.36032 4.20893 7.21967C4.34958 7.07902 4.54035 7 4.73926 7ZM6.23926 10H10.7393C10.9382 10 11.1289 10.079 11.2696 10.2197C11.4102 10.3603 11.4893 10.5511 11.4893 10.75C11.4893 10.9489 11.4102 11.1397 11.2696 11.2803C11.1289 11.421 10.9382 11.5 10.7393 11.5H6.23926C6.04035 11.5 5.84958 11.421 5.70893 11.2803C5.56828 11.1397 5.48926 10.9489 5.48926 10.75C5.48926 10.5511 5.56828 10.3603 5.70893 10.2197C5.84958 10.079 6.04035 10 6.23926 10ZM10.7393 5.5H6.23926C6.04035 5.5 5.84958 5.42098 5.70893 5.28033C5.56828 5.13968 5.48926 4.94891 5.48926 4.75C5.48926 4.55109 5.56828 4.36032 5.70893 4.21967C5.84958 4.07902 6.04035 4 6.23926 4H10.7393C10.9382 4 11.1289 4.07902 11.2696 4.21967C11.4102 4.36032 11.4893 4.55109 11.4893 4.75C11.4893 4.94891 11.4102 5.13968 11.2696 5.28033C11.1289 5.42098 10.9382 5.5 10.7393 5.5Z" fill="#333333"/>
</svg>
