<svg width="18" height="25" viewBox="0 0 18 25" fill="none" xmlns="http://www.w3.org/2000/svg">
<path fill-rule="evenodd" clip-rule="evenodd" d="M8.20429 23.8641C8.59145 24.4268 9.40855 24.4268 9.79572 23.8641C11.9087 20.7936 17.5 12.3084 17.5 8.50098C17.5 3.80656 13.6944 0.000976562 9 0.000976562C4.30558 0.000976562 0.5 3.80656 0.5 8.50098C0.5 12.3084 6.09133 20.7936 8.20429 23.8641ZM9.04783 13.8445C11.8092 13.8445 14.0478 11.6059 14.0478 8.84445C14.0478 6.08303 11.8092 3.84446 9.04783 3.84446C6.2864 3.84446 4.04783 6.08303 4.04783 8.84445C4.04783 11.6059 6.2864 13.8445 9.04783 13.8445Z" fill="#32CD30"/>
</svg>
