<svg width="16" height="16" viewBox="0 0 16 16" fill="none" xmlns="http://www.w3.org/2000/svg">
<path d="M16 0.72622V5.01326C15.9766 5.38809 15.6725 5.71606 15.2982 5.71606C14.9006 5.71606 14.5965 5.41151 14.5965 5.01326V2.41293L8.14026 8.8552C7.88295 9.13632 7.4385 9.13632 7.15779 8.8552C6.87709 8.59751 6.87709 8.15241 7.15779 7.87129L13.5906 1.40559H10.9941C10.5964 1.40559 10.2923 1.10104 10.2923 0.702794C10.2923 0.304544 10.5964 0 10.9941 0H15.2748C15.2982 0 15.3216 0.00585653 15.345 0.0117131C15.3684 0.0175696 15.3918 0.0234263 15.4152 0.0234263L15.4854 0.0468531C15.5322 0.0468531 15.5789 0.0702792 15.6257 0.140558L15.6725 0.163985C15.7427 0.210838 15.8129 0.281117 15.8596 0.351397C15.8596 0.351397 15.883 0.374823 15.883 0.39825C15.9064 0.421676 15.9298 0.445103 15.9298 0.468529C15.9298 0.480242 15.9357 0.491955 15.9415 0.503669C15.9474 0.515382 15.9532 0.527095 15.9532 0.538808C15.9766 0.538808 15.9766 0.562235 15.9766 0.585662C16 0.632514 16 0.679367 16 0.72622Z" fill="black"/>
<path d="M11.4621 16H3.04097C1.35674 16 0 14.6413 0 12.9546V4.52103C0 2.83433 1.35674 1.47559 3.04097 1.47559H8.18723C8.58489 1.47559 8.88899 1.78014 8.88899 2.17839C8.88899 2.57664 8.58489 2.88118 8.18723 2.88118H3.04097C2.12868 2.88118 1.40352 3.6074 1.40352 4.52103V12.9546C1.40352 13.8682 2.12868 14.5944 3.04097 14.5944H11.4621C12.3744 14.5944 13.0996 13.8682 13.0996 12.9546V7.80074C13.0996 7.40249 13.4037 7.09794 13.8013 7.09794C14.199 7.09794 14.5031 7.40249 14.5031 7.80074V12.9546C14.5031 14.6413 13.1464 16 11.4621 16Z" fill="black"/>
</svg>
