<svg width="4" height="16" viewBox="0 0 4 16" fill="none" xmlns="http://www.w3.org/2000/svg">
<path d="M3.63001 2.13043C3.63001 3.0309 2.90004 3.76087 1.99958 3.76087C1.09911 3.76087 0.369141 3.0309 0.369141 2.13043C0.369141 1.22997 1.09911 0.5 1.99958 0.5C2.90004 0.5 3.63001 1.22997 3.63001 2.13043Z" fill="#5E605E"/>
<path d="M3.63001 8.00006C3.63001 8.90053 2.90004 9.6305 1.99958 9.6305C1.09911 9.6305 0.369141 8.90053 0.369141 8.00006C0.369141 7.0996 1.09911 6.36963 1.99958 6.36963C2.90004 6.36963 3.63001 7.0996 3.63001 8.00006Z" fill="#5E605E"/>
<path d="M1.99958 15.5001C2.90004 15.5001 3.63001 14.7702 3.63001 13.8697C3.63001 12.9692 2.90004 12.2393 1.99958 12.2393C1.09911 12.2393 0.369141 12.9692 0.369141 13.8697C0.369141 14.7702 1.09911 15.5001 1.99958 15.5001Z" fill="#5E605E"/>
</svg>
