<svg width="16" height="20" viewBox="0 0 16 20" fill="none" xmlns="http://www.w3.org/2000/svg">
<path d="M4.36364 10.7135C3.96197 10.7135 3.63636 11.0333 3.63636 11.4278C3.63636 11.8223 3.96197 12.1421 4.36364 12.1421H11.6364C12.038 12.1421 12.3636 11.8223 12.3636 11.4278C12.3636 11.0333 12.038 10.7135 11.6364 10.7135H4.36364Z" fill="#808080"/>
<path d="M4.36364 14.2849C3.96197 14.2849 3.63636 14.6047 3.63636 14.9992C3.63636 15.3937 3.96197 15.7135 4.36364 15.7135H11.6364C12.038 15.7135 12.3636 15.3937 12.3636 14.9992C12.3636 14.6047 12.038 14.2849 11.6364 14.2849H4.36364Z" fill="#808080"/>
<path fill-rule="evenodd" clip-rule="evenodd" d="M2.90909 0C2.13755 0 1.39761 0.30102 0.852053 0.836838C0.306493 1.37266 0 2.09938 0 2.85714V17.1429C0 17.9006 0.306493 18.6273 0.852053 19.1632C1.39761 19.699 2.13755 20 2.90909 20H13.0909C13.8624 20 14.6024 19.699 15.1479 19.1632C15.6935 18.6273 16 17.9006 16 17.1429V8.44855C15.9999 7.88043 15.7701 7.33553 15.3611 6.93376L8.94011 0.627455C8.53103 0.225777 7.97618 8.58307e-05 7.39773 0H2.90909ZM1.88057 1.84699C2.15335 1.57908 2.52332 1.42857 2.90909 1.42857H7.27273V3.91736V6.42778C7.27273 6.9961 7.5026 7.54114 7.91177 7.94301C8.32094 8.34487 8.87589 8.57064 9.45455 8.57064H14.5455V17.1429C14.5455 17.5217 14.3922 17.8851 14.1194 18.153C13.8466 18.4209 13.4767 18.5714 13.0909 18.5714H2.90909C2.52332 18.5714 2.15335 18.4209 1.88057 18.153C1.60779 17.8851 1.45455 17.5217 1.45455 17.1429V2.85714C1.45455 2.47826 1.60779 2.1149 1.88057 1.84699ZM8.72727 4.74696V2.79507L13.1533 7.14206H12.9267H9.45455C9.26166 7.14206 9.07668 7.06681 8.94029 6.93286C8.80389 6.7989 8.72727 6.61722 8.72727 6.42778V4.74696Z" fill="#808080"/>
</svg>
