<svg width="24" height="16" viewBox="0 0 24 16" fill="none" xmlns="http://www.w3.org/2000/svg">
<path d="M12.6693 10.7177V3.36842H13.866V10.7177H12.6693Z" fill="#9F9F9F"/>
<path d="M12.6744 12.1675C12.8434 12.0175 13.0445 11.9426 13.2778 11.9426C13.511 11.9426 13.7105 12.0175 13.8761 12.1675C14.0451 12.3174 14.1296 12.4976 14.1296 12.7081C14.1296 12.9187 14.0451 13.0989 13.8761 13.2488C13.7105 13.3987 13.511 13.4737 13.2778 13.4737C13.0445 13.4737 12.8434 13.3987 12.6744 13.2488C12.5087 13.0989 12.4259 12.9187 12.4259 12.7081C12.4259 12.4976 12.5087 12.3174 12.6744 12.1675Z" fill="#9F9F9F"/>
<path fill-rule="evenodd" clip-rule="evenodd" d="M23.5 1.68421V14.3158C23.4987 14.7621 23.3187 15.1897 22.9995 15.5052C22.6803 15.8208 22.2477 15.9987 21.7963 16H5.61111C5.15968 15.9987 4.72711 15.8208 4.4079 15.5052C4.08868 15.1897 3.90876 14.7621 3.90741 14.3158V3.36842L0.5 0H21.7963C22.2477 0.00133282 22.6803 0.179204 22.9995 0.494766C23.3187 0.810329 23.4987 1.23794 23.5 1.68421ZM5.61111 3.36842V14.3158H21.7963V1.68421H3.90741L5.61111 3.36842Z" fill="#9F9F9F"/>
</svg>
