<svg width="19" height="17" viewBox="0 0 19 17" fill="none" xmlns="http://www.w3.org/2000/svg">
<path d="M9.88009 0.161379C9.67866 -0.053793 9.32146 -0.053793 9.12004 0.161379L0.128405 9.73747C-0.161327 10.0462 0.0708554 10.5336 0.509423 10.5336H2.89575V16.521C2.89575 16.7858 3.12297 17 3.40377 17H7.46796C7.74877 17 7.97599 16.7858 7.97599 16.521V13.1681H11.0241V16.521C11.0241 16.7858 11.2514 17 11.5322 17H15.5963C15.8772 17 16.1044 16.7858 16.1044 16.521V10.5336H18.4907C18.713 10.5336 18.8816 10.4082 18.957 10.2445C19.0305 10.0855 19.0146 9.88997 18.8717 9.73747L9.88009 0.161379Z" fill="#333333"/>
</svg>
