<svg width="18" height="18" viewBox="0 0 18 18" fill="none" xmlns="http://www.w3.org/2000/svg">
<path d="M9 0.154297C7.8383 0.154297 6.68798 0.383109 5.61472 0.82767C4.54145 1.27223 3.56626 1.92383 2.74482 2.74528C1.08584 4.40425 0.15384 6.65431 0.15384 9.00045C0.146107 11.0431 0.853388 13.0242 2.15307 14.6001L0.38384 16.3693C0.261093 16.4937 0.177943 16.6517 0.144881 16.8233C0.111819 16.9949 0.130328 17.1724 0.198071 17.3335C0.271545 17.4927 0.390655 17.6264 0.540282 17.7178C0.689908 17.8091 0.863303 17.854 1.03846 17.8466H9C11.3461 17.8466 13.5962 16.9146 15.2552 15.2556C16.9141 13.5967 17.8461 11.3466 17.8461 9.00045C17.8461 6.65431 16.9141 4.40425 15.2552 2.74528C13.5962 1.0863 11.3461 0.154297 9 0.154297ZM9 16.0774H3.17038L3.99307 15.2547C4.15783 15.0889 4.25031 14.8647 4.25031 14.631C4.25031 14.3973 4.15783 14.1731 3.99307 14.0074C2.83474 12.8503 2.11342 11.3275 1.95199 9.69823C1.79056 8.06899 2.19902 6.43419 3.10777 5.07234C4.01652 3.71048 5.36935 2.70585 6.93576 2.22958C8.50217 1.75332 10.1853 1.83489 11.6983 2.46041C13.2113 3.08593 14.4606 4.21669 15.2334 5.66005C16.0062 7.1034 16.2546 8.77005 15.9364 10.376C15.6181 11.982 14.7529 13.428 13.4881 14.4676C12.2233 15.5072 10.6372 16.0761 9 16.0774ZM13.4231 8.11584H4.57692C4.3423 8.11584 4.1173 8.20904 3.9514 8.37493C3.7855 8.54083 3.6923 8.76584 3.6923 9.00045C3.6923 9.23507 3.7855 9.46007 3.9514 9.62597C4.1173 9.79187 4.3423 9.88507 4.57692 9.88507H13.4231C13.6577 9.88507 13.8827 9.79187 14.0486 9.62597C14.2145 9.46007 14.3077 9.23507 14.3077 9.00045C14.3077 8.76584 14.2145 8.54083 14.0486 8.37493C13.8827 8.20904 13.6577 8.11584 13.4231 8.11584ZM11.6538 11.6543H6.34615C6.11153 11.6543 5.88653 11.7475 5.72063 11.9134C5.55473 12.0793 5.46153 12.3043 5.46153 12.5389C5.46153 12.7735 5.55473 12.9985 5.72063 13.1644C5.88653 13.3303 6.11153 13.4235 6.34615 13.4235H11.6538C11.8885 13.4235 12.1135 13.3303 12.2794 13.1644C12.4453 12.9985 12.5385 12.7735 12.5385 12.5389C12.5385 12.3043 12.4453 12.0793 12.2794 11.9134C12.1135 11.7475 11.8885 11.6543 11.6538 11.6543ZM6.34615 6.34661H11.6538C11.8885 6.34661 12.1135 6.2534 12.2794 6.08751C12.4453 5.92161 12.5385 5.6966 12.5385 5.46199C12.5385 5.22738 12.4453 5.00237 12.2794 4.83647C12.1135 4.67057 11.8885 4.57737 11.6538 4.57737H6.34615C6.11153 4.57737 5.88653 4.67057 5.72063 4.83647C5.55473 5.00237 5.46153 5.22738 5.46153 5.46199C5.46153 5.6966 5.55473 5.92161 5.72063 6.08751C5.88653 6.2534 6.11153 6.34661 6.34615 6.34661Z" fill="white"/>
</svg>
