<svg width="22" height="22" viewBox="0 0 22 22" fill="none" xmlns="http://www.w3.org/2000/svg">
<path fill-rule="evenodd" clip-rule="evenodd" d="M18.4405 3.55356C17.4697 2.58235 16.3165 1.81273 15.0471 1.28901C13.7777 0.765294 12.4172 0.497825 11.0441 0.502001C5.28125 0.502001 0.59 5.16981 0.587656 10.9083C0.585107 12.7355 1.06676 14.5308 1.98359 16.1114L0.5 21.502L6.04297 20.055C7.57729 20.8862 9.29484 21.3212 11.0398 21.3206H11.0441C16.8064 21.3206 21.4972 16.6523 21.5 10.9143C21.5035 9.54586 21.2348 8.19034 20.7095 6.92666C20.1843 5.66298 19.413 4.51638 18.4405 3.55356ZM11.0441 19.5642H11.0403C9.48471 19.5647 7.95739 19.1483 6.61719 18.3586L6.29984 18.1711L3.01063 19.0298L3.88859 15.8381L3.68188 15.51C2.81206 14.1329 2.35121 12.5371 2.35297 10.9083C2.35297 6.13966 6.25344 2.25981 11.0473 2.25981C13.347 2.25571 15.5542 3.16522 17.1833 4.78831C18.8125 6.4114 19.7302 8.61513 19.7347 10.9148C19.7328 15.6839 15.8342 19.5642 11.0441 19.5642ZM15.8108 13.0865C15.5497 12.9562 14.2639 12.3272 14.0258 12.2404C13.7877 12.1537 13.6119 12.1101 13.438 12.3708C13.2641 12.6314 12.763 13.2145 12.6106 13.3903C12.4583 13.5661 12.3059 13.5853 12.0448 13.455C11.7838 13.3247 10.9414 13.0504 9.94344 12.1645C9.16672 11.475 8.64266 10.6237 8.49031 10.3636C8.33797 10.1034 8.47391 9.96231 8.60469 9.83294C8.72234 9.71622 8.86578 9.52919 8.99656 9.37731C9.12735 9.22544 9.17094 9.11669 9.25766 8.94325C9.34438 8.76981 9.30125 8.61794 9.23609 8.4881C9.17094 8.35825 8.64828 7.0781 8.43078 6.55731C8.21844 6.05013 8.00328 6.11903 7.84297 6.11106C7.69063 6.10356 7.51485 6.10169 7.34188 6.10169C7.20965 6.10513 7.07955 6.1358 6.9597 6.19177C6.83985 6.24774 6.73283 6.32782 6.64531 6.427C6.40578 6.68763 5.73078 7.31763 5.73078 8.59638C5.73078 9.87513 6.66828 11.1126 6.79766 11.2861C6.92703 11.4595 8.63984 14.0859 11.2606 15.2123C11.7473 15.4207 12.2445 15.6035 12.7503 15.7598C13.3761 15.9576 13.9456 15.93 14.3956 15.8629C14.8977 15.7884 15.9425 15.2339 16.1595 14.6264C16.3766 14.0189 16.377 13.4986 16.3119 13.3903C16.2467 13.282 16.0723 13.2164 15.8108 13.0865Z" fill="white"/>
</svg>
