<svg width="8" height="12" viewBox="0 0 8 12" fill="none" xmlns="http://www.w3.org/2000/svg">
<path d="M2.60953 11.8623C2.5486 11.8624 2.48841 11.849 2.43316 11.823C2.37792 11.7971 2.32898 11.7593 2.28977 11.7123C2.25057 11.6653 2.22205 11.6102 2.20622 11.5509C2.19039 11.4915 2.18764 11.4295 2.19816 11.3689V11.3664L2.83703 7.82925H0.363601C0.294946 7.82924 0.227695 7.80964 0.169628 7.7727C0.111561 7.73577 0.0650494 7.68302 0.0354732 7.62055C0.00589702 7.55808 -0.00553539 7.48845 0.00249846 7.4197C0.0105323 7.35095 0.0377041 7.28591 0.080871 7.23208L5.06206 1.02346C5.11875 0.950893 5.19747 0.899047 5.28615 0.87585C5.37484 0.852654 5.46862 0.859383 5.55316 0.89501C5.63769 0.930636 5.70833 0.993199 5.75426 1.07313C5.8002 1.15306 5.8189 1.24596 5.80752 1.33763C5.80752 1.3445 5.8057 1.35115 5.80456 1.35802L5.16342 4.89611H7.6364C7.70505 4.89612 7.7723 4.91572 7.83037 4.95265C7.88844 4.98959 7.93495 5.04234 7.96453 5.10481C7.9941 5.16728 8.00554 5.23691 7.9975 5.30566C7.98947 5.3744 7.9623 5.43945 7.91913 5.49328L2.93726 11.7019C2.89812 11.7518 2.84832 11.7921 2.79158 11.8199C2.73483 11.8476 2.67261 11.8621 2.60953 11.8623Z" fill="black"/>
</svg>
