<svg width="32" height="28" viewBox="0 0 32 28" fill="none" xmlns="http://www.w3.org/2000/svg">
<path d="M27.2689 4.85205C24.3365 1.93714 20.386 0.275952 16.2517 0.219273C12.1174 0.162594 8.12283 1.71486 5.1116 4.54829C2.10036 7.38172 0.308148 11.2745 0.113406 15.4046C-0.0813349 19.5348 1.33664 23.5789 4.06791 26.6831L4.07986 26.6964C4.10178 26.7196 4.12236 26.7435 4.14627 26.7661C4.19541 26.8219 4.25119 26.885 4.31693 26.9507C4.57476 27.2248 4.88637 27.4426 5.23227 27.5907C5.57817 27.7388 5.95091 27.8138 6.32716 27.8112C6.70341 27.8086 7.07506 27.7283 7.41887 27.5755C7.76268 27.4226 8.07123 27.2004 8.32521 26.9228C9.30249 25.8607 10.4895 25.0129 11.8112 24.433C13.1328 23.853 14.5605 23.5536 16.0038 23.5536C17.4471 23.5536 18.8747 23.853 20.1964 24.433C21.5181 25.0129 22.705 25.8607 23.6823 26.9228C23.9382 27.2019 24.2492 27.4248 24.5957 27.5774C24.9422 27.73 25.3166 27.809 25.6952 27.8093C26.0738 27.8097 26.4484 27.7315 26.7952 27.5796C27.142 27.4276 27.4534 27.2054 27.7099 26.9268L27.923 26.6944L27.935 26.6811C30.6261 23.6423 32.0559 19.6909 31.9325 15.6336C31.8091 11.5763 30.1418 7.71906 27.2709 4.8494L27.2689 4.85205ZM14.9373 5.49951C14.9373 5.21772 15.0492 4.94747 15.2485 4.74821C15.4477 4.54896 15.718 4.43701 15.9998 4.43701C16.2816 4.43701 16.5518 4.54896 16.7511 4.74821C16.9503 4.94747 17.0623 5.21772 17.0623 5.49951V7.62451C17.0623 7.90631 16.9503 8.17656 16.7511 8.37582C16.5518 8.57507 16.2816 8.68701 15.9998 8.68701C15.718 8.68701 15.4477 8.57507 15.2485 8.37582C15.0492 8.17656 14.9373 7.90631 14.9373 7.62451V5.49951ZM7.49978 17.187H5.37478C5.09299 17.187 4.82274 17.0751 4.62348 16.8758C4.42423 16.6766 4.31228 16.4063 4.31228 16.1245C4.31228 15.8427 4.42423 15.5725 4.62348 15.3732C4.82274 15.174 5.09299 15.062 5.37478 15.062H7.49978C7.78158 15.062 8.05183 15.174 8.25108 15.3732C8.45034 15.5725 8.56228 15.8427 8.56228 16.1245C8.56228 16.4063 8.45034 16.6766 8.25108 16.8758C8.05183 17.0751 7.78158 17.187 7.49978 17.187ZM10.7404 10.8651C10.5412 11.0642 10.271 11.1761 9.98935 11.1761C9.70768 11.1761 9.43754 11.0642 9.2383 10.8651L7.73553 9.36303C7.53625 9.16375 7.42429 8.89347 7.42429 8.61164C7.42429 8.32982 7.53625 8.05954 7.73553 7.86026C7.93481 7.66098 8.20509 7.54902 8.48691 7.54902C8.76874 7.54902 9.03902 7.66098 9.2383 7.86026L10.7404 9.36303C10.9395 9.56227 11.0514 9.83241 11.0514 10.1141C11.0514 10.3958 10.9395 10.6659 10.7404 10.8651ZM20.6549 12.3991L17.5006 17.4128C17.3715 17.5916 17.2146 17.7486 17.0357 17.8776C16.604 18.1788 16.0708 18.2976 15.552 18.2082C15.0332 18.1188 14.5706 17.8283 14.2646 17.3999C13.9587 16.9716 13.834 16.4398 13.9176 15.92C14.0013 15.4003 14.2865 14.9345 14.7115 14.6237L19.7252 11.4694C19.8391 11.39 19.9747 11.3474 20.1137 11.3474C20.2526 11.3474 20.3882 11.39 20.5021 11.4694C20.6453 11.5728 20.7417 11.7286 20.7703 11.9028C20.7989 12.077 20.7574 12.2554 20.6549 12.3991ZM22.7613 10.8651C22.5604 11.056 22.2929 11.1608 22.0158 11.1573C21.7388 11.1537 21.4741 11.0421 21.2781 10.8462C21.0822 10.6502 20.9706 10.3855 20.967 10.1085C20.9635 9.83139 21.0683 9.56391 21.2592 9.36303L22.7613 7.86026C22.9605 7.66098 23.2308 7.54902 23.5127 7.54902C23.7945 7.54902 24.0648 7.66098 24.264 7.86026C24.4633 8.05954 24.5753 8.32982 24.5753 8.61164C24.5753 8.89347 24.4633 9.16375 24.264 9.36303L22.7613 10.8651ZM26.6248 17.187H24.4998C24.218 17.187 23.9477 17.0751 23.7485 16.8758C23.5492 16.6766 23.4373 16.4063 23.4373 16.1245C23.4373 15.8427 23.5492 15.5725 23.7485 15.3732C23.9477 15.174 24.218 15.062 24.4998 15.062H26.6248C26.9066 15.062 27.1768 15.174 27.3761 15.3732C27.5753 15.5725 27.6873 15.8427 27.6873 16.1245C27.6873 16.4063 27.5753 16.6766 27.3761 16.8758C27.1768 17.0751 26.9066 17.187 26.6248 17.187Z" fill="#32CD30"/>
</svg>
