<svg width="24" height="32" viewBox="0 0 24 32" fill="none" xmlns="http://www.w3.org/2000/svg">
<path d="M19.4375 11.7451H18.375V6.43262C18.375 4.74186 17.7034 3.12036 16.5078 1.92481C15.3123 0.729267 13.6908 0.0576172 12 0.0576172C10.3092 0.0576172 8.68774 0.729267 7.4922 1.92481C6.29665 3.12036 5.625 4.74186 5.625 6.43262V11.7451H4.5625C3.43571 11.7463 2.35542 12.1945 1.55866 12.9913C0.761892 13.788 0.31373 14.8683 0.3125 15.9951V27.6826C0.31373 28.8094 0.761892 29.8897 1.55866 30.6865C2.35542 31.4832 3.43571 31.9314 4.5625 31.9326H19.4375C20.5643 31.9314 21.6446 31.4832 22.4413 30.6865C23.2381 29.8897 23.6863 28.8094 23.6875 27.6826V15.9951C23.6863 14.8683 23.2381 13.788 22.4413 12.9913C21.6446 12.1945 20.5643 11.7463 19.4375 11.7451ZM16.25 11.7451H7.75V6.43262C7.75 5.30545 8.19777 4.22444 8.9948 3.42741C9.79183 2.63038 10.8728 2.18262 12 2.18262C13.1272 2.18262 14.2082 2.63038 15.0052 3.42741C15.8022 4.22444 16.25 5.30545 16.25 6.43262V11.7451Z" fill="#32CD30"/>
</svg>
