<svg width="11" height="11" viewBox="0 0 11 11" fill="none" xmlns="http://www.w3.org/2000/svg">
<path d="M6.20384 5.61884C6.49286 5.36866 6.72468 5.05924 6.88356 4.71156C7.04245 4.36389 7.12468 3.9861 7.12467 3.60384C7.12467 2.88555 6.83933 2.19667 6.33142 1.68876C5.82351 1.18085 5.13464 0.895508 4.41634 0.895508C3.69805 0.895508 3.00917 1.18085 2.50126 1.68876C1.99335 2.19667 1.70801 2.88555 1.70801 3.60384C1.708 3.9861 1.79023 4.36389 1.94912 4.71156C2.108 5.05924 2.33982 5.36866 2.62884 5.61884C1.87058 5.9622 1.22726 6.51667 0.775789 7.21597C0.324318 7.91527 0.0838051 8.7298 0.0830078 9.56217C0.0830078 9.70583 0.140076 9.84361 0.241658 9.94519C0.34324 10.0468 0.481016 10.1038 0.624674 10.1038C0.768333 10.1038 0.906108 10.0468 1.00769 9.94519C1.10927 9.84361 1.16634 9.70583 1.16634 9.56217C1.16634 8.70022 1.50875 7.87357 2.11824 7.26408C2.72774 6.65458 3.55439 6.31217 4.41634 6.31217C5.2783 6.31217 6.10495 6.65458 6.71444 7.26408C7.32393 7.87357 7.66634 8.70022 7.66634 9.56217C7.66634 9.70583 7.72341 9.84361 7.82499 9.94519C7.92657 10.0468 8.06435 10.1038 8.20801 10.1038C8.35167 10.1038 8.48944 10.0468 8.59102 9.94519C8.69261 9.84361 8.74967 9.70583 8.74967 9.56217C8.74888 8.7298 8.50836 7.91527 8.05689 7.21597C7.60542 6.51667 6.9621 5.9622 6.20384 5.61884ZM4.41634 5.22884C4.09495 5.22884 3.78077 5.13354 3.51354 4.95498C3.24631 4.77642 3.03803 4.52263 2.91504 4.2257C2.79204 3.92877 2.75986 3.60204 2.82257 3.28682C2.88527 2.9716 3.04003 2.68205 3.26729 2.45479C3.49455 2.22753 3.7841 2.07277 4.09932 2.01007C4.41454 1.94736 4.74127 1.97954 5.0382 2.10254C5.33513 2.22553 5.58892 2.43381 5.76748 2.70104C5.94604 2.96827 6.04134 3.28245 6.04134 3.60384C6.04134 4.03482 5.87014 4.44814 5.56539 4.75289C5.26064 5.05764 4.84732 5.22884 4.41634 5.22884ZM10.7593 3.94509C10.7089 3.89432 10.649 3.85402 10.583 3.82653C10.517 3.79903 10.4462 3.78487 10.3747 3.78487C10.3032 3.78487 10.2324 3.79903 10.1664 3.82653C10.1004 3.85402 10.0404 3.89432 9.99009 3.94509L8.90676 5.02842L8.57092 4.68717C8.52057 4.6364 8.46066 4.59611 8.39465 4.56861C8.32865 4.54111 8.25785 4.52695 8.18634 4.52695C8.11483 4.52695 8.04404 4.54111 7.97803 4.56861C7.91202 4.59611 7.85211 4.6364 7.80176 4.68717C7.70087 4.78866 7.64425 4.92595 7.64425 5.06905C7.64425 5.21215 7.70087 5.34944 7.80176 5.45092L8.52759 6.17676C8.62908 6.27764 8.76637 6.33427 8.90947 6.33427C9.05257 6.33427 9.18985 6.27764 9.29134 6.17676L10.7376 4.73051C10.7923 4.68139 10.8364 4.62166 10.8673 4.55494C10.8981 4.48823 10.9151 4.41593 10.9171 4.34245C10.9191 4.26897 10.9062 4.19585 10.8791 4.12754C10.8519 4.05922 10.8112 3.99715 10.7593 3.94509Z" fill="#414853"/>
</svg>
